<svg width="264" height="394" viewBox="0 0 264 394" fill="none" xmlns="http://www.w3.org/2000/svg">
<mask id="path-1-outside-1_549_5" maskUnits="userSpaceOnUse" x="23" y="9" width="213" height="378" fill="black">
<rect fill="white" x="23" y="9" width="213" height="378"/>
<path d="M128.462 14.0342L177.377 33.2393L177.39 33.2442L207.75 46.1096C208.368 46.3711 209.031 46.5059 209.701 46.5059H221C226.523 46.5059 231 50.9831 231 56.5059V328.838C231 334.361 226.523 338.838 221 338.838H213.698C212.908 338.838 212.129 339.025 211.426 339.384L139.483 376.077C139.465 376.086 139.471 376.113 139.492 376.113C139.511 376.113 139.518 376.14 139.501 376.149L130.952 380.811C130.221 381.209 129.34 381.219 128.602 380.835L119.536 376.132C119.527 376.127 119.53 376.113 119.541 376.113C119.551 376.113 119.555 376.099 119.545 376.095L47.9067 339.388C47.201 339.026 46.4195 338.838 45.6266 338.838H38C32.4772 338.838 28 334.361 28 328.838V56.5059C28 50.9831 32.4772 46.5059 38 46.5059H48.2897C48.9431 46.5059 49.5902 46.3778 50.1943 46.1289L84.0645 32.1748L128.088 14.0381C128.207 13.9887 128.342 13.9872 128.462 14.0342Z"/>
</mask>
<path d="M128.462 14.0342L177.377 33.2393L177.39 33.2442L207.75 46.1096C208.368 46.3711 209.031 46.5059 209.701 46.5059H221C226.523 46.5059 231 50.9831 231 56.5059V328.838C231 334.361 226.523 338.838 221 338.838H213.698C212.908 338.838 212.129 339.025 211.426 339.384L139.483 376.077C139.465 376.086 139.471 376.113 139.492 376.113C139.511 376.113 139.518 376.14 139.501 376.149L130.952 380.811C130.221 381.209 129.34 381.219 128.602 380.835L119.536 376.132C119.527 376.127 119.53 376.113 119.541 376.113C119.551 376.113 119.555 376.099 119.545 376.095L47.9067 339.388C47.201 339.026 46.4195 338.838 45.6266 338.838H38C32.4772 338.838 28 334.361 28 328.838V56.5059C28 50.9831 32.4772 46.5059 38 46.5059H48.2897C48.9431 46.5059 49.5902 46.3778 50.1943 46.1289L84.0645 32.1748L128.088 14.0381C128.207 13.9887 128.342 13.9872 128.462 14.0342Z" fill="#1F8B58"/>
<path d="M128.462 14.0342L130.289 9.38008L130.281 9.37693L128.462 14.0342ZM177.377 33.2393L175.55 37.8934L175.566 37.8998L175.582 37.906L177.377 33.2393ZM177.39 33.2442L179.34 28.6405L179.263 28.6076L179.185 28.5774L177.39 33.2442ZM231 56.5059H236V56.5059L231 56.5059ZM231 328.838L236 328.838V328.838H231ZM28 328.838H23V328.838L28 328.838ZM28 56.5059L23 56.5059V56.5059H28ZM84.0645 32.1748L82.1599 27.5518L82.1598 27.5518L84.0645 32.1748ZM128.088 14.0381L129.992 18.6612L129.999 18.6585L128.088 14.0381ZM119.545 376.095L117.265 380.544L119.545 376.095ZM119.536 376.132L117.234 380.57L119.536 376.132ZM130.952 380.811L133.345 385.201V385.201L130.952 380.811ZM128.602 380.835L130.904 376.397L128.602 380.835ZM139.501 376.149L137.107 371.759L139.501 376.149ZM139.483 376.077L141.755 380.531L139.483 376.077ZM50.1943 46.1289L48.2897 41.5059L50.1943 46.1289ZM211.426 339.384L213.698 343.838L211.426 339.384ZM47.9067 339.388L50.1867 334.938V334.938L47.9067 339.388ZM207.75 46.1096L205.8 50.7133L207.75 46.1096ZM128.462 14.0342L126.635 18.6883L175.55 37.8934L177.377 33.2393L179.204 28.5852L130.289 9.38008L128.462 14.0342ZM177.377 33.2393L175.582 37.906L175.595 37.9109L177.39 33.2442L179.185 28.5774L179.172 28.5726L177.377 33.2393ZM177.39 33.2442L175.439 37.8479L205.8 50.7133L207.75 46.1096L209.701 41.5059L179.34 28.6405L177.39 33.2442ZM209.701 46.5059V51.5059H221V46.5059V41.5059H209.701V46.5059ZM221 46.5059V51.5059C223.761 51.5059 226 53.7445 226 56.5059L231 56.5059L236 56.5059C236 48.2217 229.284 41.5059 221 41.5059V46.5059ZM231 56.5059H226V328.838H231H236V56.5059H231ZM231 328.838L226 328.838C226 331.599 223.761 333.838 221 333.838V338.838V343.838C229.284 343.838 236 337.122 236 328.838L231 328.838ZM221 338.838V333.838H213.698V338.838V343.838H221V338.838ZM211.426 339.384L209.154 334.93L137.211 371.623L139.483 376.077L141.755 380.531L213.698 343.838L211.426 339.384ZM139.501 376.149L137.107 371.759L128.558 376.421L130.952 380.811L133.345 385.201L141.894 380.539L139.501 376.149ZM128.602 380.835L130.904 376.397L121.839 371.694L119.536 376.132L117.234 380.57L126.299 385.274L128.602 380.835ZM119.545 376.095L121.825 371.645L50.1867 334.938L47.9067 339.388L45.6266 343.838L117.265 380.544L119.545 376.095ZM45.6266 338.838V333.838H38V338.838V343.838H45.6266V338.838ZM38 338.838V333.838C35.2386 333.838 33 331.599 33 328.838L28 328.838L23 328.838C23.0001 337.122 29.7157 343.838 38 343.838V338.838ZM28 328.838H33V56.5059H28H23V328.838H28ZM28 56.5059L33 56.5059C33 53.7445 35.2386 51.5059 38 51.5059V46.5059V41.5059C29.7157 41.5059 23 48.2217 23 56.5059L28 56.5059ZM38 46.5059V51.5059H48.2897V46.5059V41.5059H38V46.5059ZM50.1943 46.1289L52.0989 50.7519L85.9691 36.7979L84.0645 32.1748L82.1598 27.5518L48.2897 41.5059L50.1943 46.1289ZM84.0645 32.1748L85.969 36.7979L129.992 18.6612L128.088 14.0381L126.183 9.41508L82.1599 27.5518L84.0645 32.1748ZM119.541 376.113V381.113C124.801 381.113 126.507 374.043 121.825 371.645L119.545 376.095L117.265 380.544C112.603 378.155 114.302 371.113 119.541 371.113V376.113ZM119.536 376.132L121.839 371.694C126.477 374.1 124.766 381.113 119.541 381.113V376.113V371.113C114.294 371.113 112.577 378.154 117.234 380.57L119.536 376.132ZM128.088 14.0381L129.999 18.6585C128.932 19.1 127.729 19.116 126.643 18.6915L128.462 14.0342L130.281 9.37693C128.954 8.85843 127.483 8.87752 126.177 9.41774L128.088 14.0381ZM130.952 380.811L128.558 376.421C129.287 376.024 130.167 376.014 130.904 376.397L128.602 380.835L126.299 385.274C128.514 386.423 131.155 386.395 133.345 385.201L130.952 380.811ZM139.492 376.113V381.113C134.331 381.113 132.576 374.23 137.107 371.759L139.501 376.149L141.894 380.539C146.46 378.049 144.692 371.113 139.492 371.113V376.113ZM139.483 376.077L137.211 371.623C132.511 374.02 134.218 381.113 139.492 381.113V376.113V371.113C144.725 371.113 146.419 378.153 141.755 380.531L139.483 376.077ZM48.2897 46.5059V51.5059C49.5965 51.5059 50.8906 51.2498 52.0989 50.7519L50.1943 46.1289L48.2897 41.5059H48.2897V46.5059ZM213.698 338.838V333.838C212.118 333.838 210.561 334.212 209.154 334.93L211.426 339.384L213.698 343.838V343.838V338.838ZM47.9067 339.388L50.1867 334.938C48.7754 334.215 47.2124 333.838 45.6266 333.838V338.838V343.838H45.6266L47.9067 339.388ZM207.75 46.1096L205.8 50.7133C207.034 51.2364 208.361 51.5059 209.701 51.5059V46.5059V41.5059V41.5059L207.75 46.1096Z" fill="#FFD54F" mask="url(#path-1-outside-1_549_5)"/>
</svg>
