<svg width="264" height="394" viewBox="0 0 264 394" fill="none" xmlns="http://www.w3.org/2000/svg">
<mask id="path-1-outside-1_549_5" maskUnits="userSpaceOnUse" x="25" y="8" width="213" height="377" fill="black">
<rect fill="white" x="25" y="8" width="213" height="377"/>
<path d="M130.462 13.0342L179.377 32.2393L179.39 32.2442L209.75 45.1096C210.368 45.3711 211.031 45.5059 211.701 45.5059H223C228.523 45.5059 233 49.983 233 55.5059V327.838C233 333.361 228.523 337.838 223 337.838H215.698C214.908 337.838 214.129 338.025 213.426 338.384L141.3 375.171C141.287 375.177 141.273 375.181 141.258 375.181C141.243 375.181 141.228 375.185 141.215 375.192L134.119 379.062C132.659 379.858 130.898 379.876 129.422 379.11L121.909 375.212C121.869 375.191 121.825 375.181 121.781 375.181C121.737 375.181 121.693 375.17 121.654 375.15L49.9067 338.388C49.201 338.026 48.4195 337.838 47.6266 337.838H40C34.4772 337.838 30.0001 333.361 30 327.838V55.5059C30 49.983 34.4772 45.5059 40 45.5059H50.2897C50.9431 45.5059 51.5902 45.3778 52.1943 45.1289L86.0645 31.1748L130.088 13.0381C130.207 12.9887 130.342 12.9872 130.462 13.0342Z"/>
</mask>
<path d="M130.462 13.0342L179.377 32.2393L179.39 32.2442L209.75 45.1096C210.368 45.3711 211.031 45.5059 211.701 45.5059H223C228.523 45.5059 233 49.983 233 55.5059V327.838C233 333.361 228.523 337.838 223 337.838H215.698C214.908 337.838 214.129 338.025 213.426 338.384L141.3 375.171C141.287 375.177 141.273 375.181 141.258 375.181C141.243 375.181 141.228 375.185 141.215 375.192L134.119 379.062C132.659 379.858 130.898 379.876 129.422 379.11L121.909 375.212C121.869 375.191 121.825 375.181 121.781 375.181C121.737 375.181 121.693 375.17 121.654 375.15L49.9067 338.388C49.201 338.026 48.4195 337.838 47.6266 337.838H40C34.4772 337.838 30.0001 333.361 30 327.838V55.5059C30 49.983 34.4772 45.5059 40 45.5059H50.2897C50.9431 45.5059 51.5902 45.3778 52.1943 45.1289L86.0645 31.1748L130.088 13.0381C130.207 12.9887 130.342 12.9872 130.462 13.0342Z" fill="#FFD54F"/>
<path d="M130.462 13.0342L132.289 8.38008L132.281 8.37693L130.462 13.0342ZM179.377 32.2393L177.55 36.8934L177.566 36.8998L177.582 36.906L179.377 32.2393ZM179.39 32.2442L181.34 27.6405L181.263 27.6076L181.185 27.5774L179.39 32.2442ZM233 55.5059H238V55.5059H233ZM233 327.838L238 327.838V327.838H233ZM30 327.838H25V327.838L30 327.838ZM30 55.5059H25V55.5059H30ZM86.0645 31.1748L84.1599 26.5518L84.1598 26.5518L86.0645 31.1748ZM130.088 13.0381L131.992 17.6612L131.999 17.6585L130.088 13.0381ZM121.654 375.15L119.374 379.6L121.654 375.15ZM121.909 375.212L124.211 370.774L121.909 375.212ZM134.119 379.062L136.512 383.451L134.119 379.062ZM129.422 379.11L131.725 374.672L129.422 379.11ZM141.215 375.192L143.609 379.582L141.215 375.192ZM141.3 375.171L143.571 379.625L141.3 375.171ZM52.1943 45.1289L50.2897 40.5059L52.1943 45.1289ZM213.426 338.384L215.698 342.838L213.426 338.384ZM49.9067 338.388L47.6266 342.838L49.9067 338.388ZM209.75 45.1096L207.8 49.7133L209.75 45.1096ZM130.462 13.0342L128.635 17.6883L177.55 36.8934L179.377 32.2393L181.204 27.5852L132.289 8.38008L130.462 13.0342ZM179.377 32.2393L177.582 36.906L177.595 36.9109L179.39 32.2442L181.185 27.5774L181.172 27.5726L179.377 32.2393ZM179.39 32.2442L177.439 36.8479L207.8 49.7133L209.75 45.1096L211.701 40.5059L181.34 27.6405L179.39 32.2442ZM211.701 45.5059V50.5059H223V45.5059V40.5059H211.701V45.5059ZM223 45.5059V50.5059C225.761 50.5059 228 52.7445 228 55.5059H233H238C238 47.2216 231.284 40.5059 223 40.5059V45.5059ZM233 55.5059H228V327.838H233H238V55.5059H233ZM233 327.838L228 327.838C228 330.599 225.761 332.838 223 332.838V337.838V342.838C231.284 342.838 238 336.122 238 327.838L233 327.838ZM223 337.838V332.838H215.698V337.838V342.838H223V337.838ZM213.426 338.384L211.154 333.93L139.028 370.717L141.3 375.171L143.571 379.625L215.698 342.838L213.426 338.384ZM141.215 375.192L138.821 370.802L131.725 374.672L134.119 379.062L136.512 383.451L143.609 379.582L141.215 375.192ZM129.422 379.11L131.725 374.672L124.211 370.774L121.909 375.212L119.606 379.65L127.119 383.548L129.422 379.11ZM121.654 375.15L123.934 370.7L52.1867 333.938L49.9067 338.388L47.6266 342.838L119.374 379.6L121.654 375.15ZM47.6266 337.838V332.838H40V337.838V342.838H47.6266V337.838ZM40 337.838V332.838C37.2387 332.838 35 330.599 35 327.838L30 327.838L25 327.838C25.0001 336.122 31.7157 342.838 40 342.838V337.838ZM30 327.838H35V55.5059H30H25V327.838H30ZM30 55.5059H35C35 52.7445 37.2386 50.5059 40 50.5059V45.5059V40.5059C31.7157 40.5059 25 47.2216 25 55.5059H30ZM40 45.5059V50.5059H50.2897V45.5059V40.5059H40V45.5059ZM52.1943 45.1289L54.0989 49.7519L87.9691 35.7979L86.0645 31.1748L84.1598 26.5518L50.2897 40.5059L52.1943 45.1289ZM86.0645 31.1748L87.969 35.7979L131.992 17.6612L130.088 13.0381L128.183 8.41508L84.1599 26.5518L86.0645 31.1748ZM121.781 375.181V370.181C122.53 370.181 123.268 370.359 123.934 370.7L121.654 375.15L119.374 379.6C120.119 379.982 120.944 380.181 121.781 380.181V375.181ZM121.909 375.212L124.211 370.774C123.46 370.384 122.627 370.181 121.781 370.181V375.181V380.181C121.024 380.181 120.278 379.999 119.606 379.65L121.909 375.212ZM130.088 13.0381L131.999 17.6585C130.932 18.1 129.729 18.116 128.643 17.6915L130.462 13.0342L132.281 8.37693C130.954 7.85843 129.483 7.87752 128.177 8.41774L130.088 13.0381ZM134.119 379.062L131.725 374.672V374.672L129.422 379.11L127.119 383.548C130.072 385.08 133.592 385.044 136.512 383.451L134.119 379.062ZM141.258 375.181V370.181C140.407 370.181 139.569 370.394 138.821 370.802L141.215 375.192L143.609 379.582C142.888 379.975 142.08 380.181 141.258 380.181V375.181ZM141.3 375.171L139.028 370.717C139.719 370.364 140.483 370.181 141.258 370.181V375.181V380.181C142.062 380.181 142.855 379.99 143.571 379.625L141.3 375.171ZM50.2897 45.5059V50.5059C51.5965 50.5059 52.8906 50.2498 54.0989 49.7519L52.1943 45.1289L50.2897 40.5059H50.2897V45.5059ZM215.698 337.838V332.838C214.118 332.838 212.561 333.212 211.154 333.93L213.426 338.384L215.698 342.838V342.838V337.838ZM49.9067 338.388L52.1867 333.938C50.7754 333.215 49.2124 332.838 47.6266 332.838V337.838V342.838H47.6266L49.9067 338.388ZM209.75 45.1096L207.8 49.7133C209.034 50.2364 210.361 50.5059 211.701 50.5059V45.5059V40.5059V40.5059L209.75 45.1096Z" fill="#F2AA02" mask="url(#path-1-outside-1_549_5)"/>
</svg>
