<svg width="43" height="43" viewBox="0 0 43 43" fill="none" xmlns="http://www.w3.org/2000/svg">
<path d="M37.8341 15.1204V29.287C37.8341 30.2263 37.4171 31.1272 36.6748 31.7914C35.9324 32.4556 34.9256 32.8287 33.8758 32.8287H10.1258C9.076 32.8287 8.06918 32.4556 7.32685 31.7914C6.58452 31.1272 6.16748 30.2263 6.16748 29.287V15.1204" stroke="white" stroke-width="1.4" stroke-linecap="round" stroke-linejoin="round"/>
<path d="M37.8341 15.1159C37.8341 14.1766 37.4171 13.2757 36.6748 12.6115C35.9324 11.9474 34.9256 11.5742 33.8758 11.5742H10.1258C9.076 11.5742 8.06918 11.9474 7.32685 12.6115C6.58452 13.2757 6.16748 14.1766 6.16748 15.1159L19.9029 22.7895C20.532 23.1413 21.2589 23.3278 22.0008 23.3278C22.7427 23.3278 23.4696 23.1413 24.0987 22.7895L37.8341 15.1159Z" stroke="white" stroke-width="1.4" stroke-linecap="round" stroke-linejoin="round"/>
</svg>
