<svg width="140" height="140" viewBox="0 0 140 140" fill="none" xmlns="http://www.w3.org/2000/svg">
<path d="M72.0351 42.638C71.0524 42.2296 69.9476 42.2296 68.9649 42.638L42.6479 53.5751C39.5572 54.8596 39.3167 59.1455 42.2442 60.7676L68.5613 75.3502C69.7674 76.0185 71.2326 76.0185 72.4387 75.3502L79.4958 71.4397C82.5338 69.7564 82.1302 65.2671 78.8408 64.1525L72.5789 62.0308C71.92 61.8076 71.1957 61.9443 70.5 61.946C69.8549 61.946 69.2362 61.662 68.78 61.1565C68.3239 60.6509 68.0676 59.9653 68.0676 59.2504C68.0676 58.5354 68.3239 57.8498 68.78 57.3443C69.0282 57.0692 69.3245 56.8598 69.6469 56.7259C70.0535 56.5572 70.3835 56.9744 70.2658 57.3985C70.1714 57.7384 70.3586 58.0929 70.6924 58.2067L72.9113 58.9633C72.9141 58.9642 72.9161 58.9666 72.9164 58.9695C72.9168 58.9724 72.9188 58.9748 72.9216 58.9758L77.0755 60.3835L99.6114 68.0675C100.294 68.3003 100.753 68.9417 100.753 69.663C100.753 70.192 100.475 70.6729 100.178 71.1105C100.101 71.2237 100.032 71.3437 99.9719 71.4697C99.7865 71.8576 99.6893 72.2897 99.6888 72.7287C99.6893 73.1777 99.7909 73.6195 99.9845 74.0139C100.326 74.7095 100.676 75.476 100.547 76.2401C99.8187 80.5467 99.7085 87.8232 99.6918 92.248C99.687 93.5344 100.239 94.859 101.393 95.4291C101.939 95.699 102.342 95.7005 102.896 95.4219C104.024 94.8551 104.555 93.5531 104.551 92.2907C104.535 87.871 104.426 80.5633 103.696 76.2423C103.567 75.4778 103.917 74.7108 104.258 74.0146C104.452 73.6199 104.553 73.1778 104.554 72.7285C104.554 72.2891 104.457 71.8563 104.271 71.4679C103.93 70.7542 103.489 70.035 103.489 69.2441V68.5122C103.489 67.1399 102.616 65.9197 101.317 65.4768L100.975 65.3602C98.4741 64.5072 98.1704 61.0921 100.482 59.8112C102.712 58.5755 102.529 55.3109 100.175 54.3325L72.0351 42.638ZM50.498 68.8536C50.0779 68.8536 49.7211 69.1608 49.6586 69.5761L48.3703 78.1427C48.0405 80.3356 49.5718 82.3861 51.6439 83.1758C54.652 84.3222 57.8616 86.1944 60.8874 88.2903C63.3761 90.0141 65.7071 91.9063 67.6003 93.7422C69.1519 95.2467 71.8481 95.2467 73.3997 93.7422C75.2929 91.9063 77.6237 90.0141 80.1126 88.2903C83.1384 86.1944 86.3479 84.3222 89.356 83.1758C91.4281 82.3861 92.9594 80.3355 92.6296 78.1426L91.3411 69.5761C91.2786 69.1608 90.9218 68.8536 90.5017 68.8536C90.3578 68.8536 90.2162 68.8902 90.0903 68.9599L72.4387 78.7409C71.2326 79.4092 69.7674 79.4092 68.5613 78.7409L50.9094 68.9599C50.7835 68.8902 50.6419 68.8536 50.498 68.8536Z" fill="white"/>
</svg>
