<svg width="43" height="43" viewBox="0 0 43 43" fill="none" xmlns="http://www.w3.org/2000/svg">
<path d="M30.0005 14.0011C30.1215 14.1221 30.2856 14.19 30.4567 14.19C30.6278 14.19 30.7919 14.1221 30.9129 14.0011C31.0339 13.8801 31.1019 13.716 31.1019 13.5448C31.1019 13.3737 31.0339 13.2096 30.9129 13.0886C30.7919 12.9676 30.6278 12.8997 30.4567 12.8997C30.2856 12.8997 30.1215 12.9676 30.0005 13.0886C29.8795 13.2096 29.8115 13.3737 29.8115 13.5448C29.8115 13.716 29.8795 13.8801 30.0005 14.0011Z" stroke="white" stroke-width="1.5" stroke-linecap="round" stroke-linejoin="round"/>
<path d="M6.00258 13.6402C6.00258 11.8791 6.70218 10.1902 7.94746 8.94488C9.19275 7.69959 10.8817 7 12.6428 7H30.3518C31.2239 7 32.0873 7.17175 32.893 7.50546C33.6986 7.83916 34.4306 8.32828 35.0472 8.94488C35.6638 9.56148 36.1529 10.2935 36.4866 11.0991C36.8203 11.9048 36.9921 12.7682 36.9921 13.6402V31.3493C36.9921 33.1104 36.2925 34.7993 35.0472 36.0446C33.8019 37.2899 32.1129 37.9895 30.3518 37.9895H12.6402C10.8791 37.9895 9.19017 37.2899 7.94488 36.0446C6.69959 34.7993 6 33.1104 6 31.3493L6.00258 13.6402Z" stroke="white" stroke-width="1.5" stroke-linecap="round" stroke-linejoin="round"/>
<path d="M15.4126 25.0131C15.0818 24.2147 14.9116 23.3589 14.9116 22.4947C14.9116 20.7493 15.605 19.0755 16.8391 17.8413C18.0733 16.6072 19.7471 15.9138 21.4925 15.9138C23.2379 15.9138 24.9117 16.6072 26.1459 17.8413C27.38 19.0755 28.0734 20.7493 28.0734 22.4947C28.0734 23.3589 27.9032 24.2147 27.5724 25.0131C27.2417 25.8115 26.757 26.537 26.1459 27.1481C25.5348 27.7592 24.8093 28.2439 24.0109 28.5746C23.2125 28.9054 22.3567 29.0756 21.4925 29.0756C20.6283 29.0756 19.7725 28.9054 18.9741 28.5746C18.1757 28.2439 17.4502 27.7592 16.8391 27.1481C16.228 26.537 15.7433 25.8115 15.4126 25.0131Z" stroke="white" stroke-width="1.5" stroke-linecap="round" stroke-linejoin="round"/>
</svg>
