<svg width="140" height="140" viewBox="0 0 140 140" fill="none" xmlns="http://www.w3.org/2000/svg">
<g clip-path="url(#clip0_549_5)">
<path d="M7.94926 60.1845C8.77666 66.8649 13.606 71.2821 13.606 71.2821C13.606 71.2821 17.0957 64.8682 16.2683 58.1878C15.4401 51.5034 10.6108 47.0862 10.6108 47.0862C10.6108 47.0862 7.12539 53.5068 7.94926 60.1845ZM8.459 83.6357C11.6053 88.7017 17.2774 88.7423 17.2774 88.7423C17.2774 88.7423 17.8493 80.5681 14.703 75.502C11.5567 70.436 5.88376 70.3915 5.88376 70.3915C5.88376 70.3915 5.31269 78.5696 8.459 83.6357ZM15.1617 103.364C19.5682 105.689 24.5362 101.818 24.5362 101.818C24.5362 101.818 22.3566 94.1737 17.9501 91.8487C13.5436 89.5237 8.57555 93.3951 8.57555 93.3951C8.57555 93.3951 10.7552 101.039 15.1617 103.364ZM28.4992 115.945C33.129 116.907 37.4248 111.619 37.4248 111.619C37.4248 111.619 34.2113 104.772 29.5806 103.807C24.9507 102.845 20.6585 108.136 20.6585 108.136C20.6585 108.136 23.8693 114.984 28.4992 115.945ZM17.0062 40.5805C14.7268 46.4416 16.5629 54.262 16.5629 54.262C16.5629 54.262 22.1023 52.5849 24.3816 46.7239C26.661 40.8629 24.824 33.0385 24.824 33.0385C24.824 33.0385 19.2856 34.7195 17.0062 40.5805Z" fill="#DDA800" fill-opacity="0.8"/>
<path d="M131.902 60.1845C131.075 66.8649 126.246 71.2821 126.246 71.2821C126.246 71.2821 122.756 64.8682 123.583 58.1878C124.412 51.5034 129.241 47.0862 129.241 47.0862C129.241 47.0862 132.726 53.5068 131.902 60.1845ZM131.393 83.6357C128.246 88.7017 122.574 88.7423 122.574 88.7423C122.574 88.7423 122.002 80.5681 125.149 75.502C128.295 70.436 133.968 70.3915 133.968 70.3915C133.968 70.3915 134.539 78.5696 131.393 83.6357ZM124.69 103.364C120.283 105.689 115.315 101.818 115.315 101.818C115.315 101.818 117.495 94.1737 121.901 91.8487C126.308 89.5237 131.276 93.3951 131.276 93.3951C131.276 93.3951 129.096 101.039 124.69 103.364ZM111.352 115.945C106.723 116.907 102.427 111.619 102.427 111.619C102.427 111.619 105.64 104.772 110.271 103.807C114.901 102.845 119.193 108.136 119.193 108.136C119.193 108.136 115.982 114.984 111.352 115.945ZM122.845 40.5805C125.125 46.4416 123.289 54.262 123.289 54.262C123.289 54.262 117.749 52.5849 115.47 46.7239C113.191 40.8629 115.028 33.0385 115.028 33.0385C115.028 33.0385 120.566 34.7195 122.845 40.5805Z" fill="#DDA800" fill-opacity="0.8"/>
</g>
<defs>
<clipPath id="clip0_549_5">
<rect width="140" height="140" fill="white"/>
</clipPath>
</defs>
</svg>
