<svg width="140" height="140" viewBox="0 0 140 140" fill="none" xmlns="http://www.w3.org/2000/svg">
<path d="M70 73.625C71.7728 73.625 73.5283 73.9532 75.1662 74.5908C76.8041 75.2284 78.2924 76.1629 79.5459 77.3411C80.7995 78.5192 81.7939 79.9179 82.4724 81.4572C83.1508 82.9965 83.5 84.6464 83.5 86.3125C83.5 87.9786 83.1508 89.6285 82.4724 91.1678C81.7939 92.7071 80.7995 94.1058 79.5459 95.2839C78.2924 96.4621 76.8041 97.3966 75.1662 98.0342C73.5283 98.6718 71.7728 99 70 99C66.4196 99 62.9858 97.6633 60.4541 95.2839C57.9223 92.9046 56.5 89.6774 56.5 86.3125C56.5 82.9476 57.9223 79.7205 60.4541 77.3411C62.9858 74.9617 66.4196 73.625 70 73.625ZM51.1386 41.7975C50.7613 42.7794 50.6346 43.8308 50.7686 44.8672C50.9026 45.9035 51.2935 46.8958 51.91 47.7642L67.7783 70.1341C63.3628 70.6689 59.3348 72.7778 56.527 76.0247L44.62 59.241C43.5629 57.7511 42.9992 56.0003 43 54.2095V53.8796C42.9999 52.2375 43.4745 50.6262 44.3731 49.2179L46.8109 45.3971C47.8279 43.8096 49.3383 42.5533 51.1386 41.7975ZM88.8576 41.7975C90.6598 42.5537 92.1717 43.8114 93.1891 45.4007L95.6269 49.2215C96.5256 50.628 97 52.2411 97 53.8832V54.2095C97 55.999 96.4364 57.7485 95.38 59.2374L83.4691 76.0247C80.6613 72.7778 76.6333 70.6689 72.2179 70.1341L88.09 47.7679C88.7052 46.8988 89.0948 45.9062 89.2274 44.8699C89.3601 43.8336 89.2321 42.7825 88.8537 41.8011M82.1731 41C82.7622 41.0002 83.3401 41.1507 83.8454 41.4353C84.3506 41.7199 84.7642 42.128 85.0421 42.6161C85.32 43.1042 85.4518 43.6541 85.4234 44.207C85.395 44.76 85.2075 45.2953 84.8809 45.756L80.5377 51.875H59.4623L55.1191 45.756C54.7939 45.295 54.6075 44.7599 54.5798 44.2074C54.552 43.6549 54.684 43.1057 54.9617 42.618C55.2393 42.1303 55.6523 41.7224 56.1568 41.4375C56.6612 41.1526 57.2383 41.0015 57.8269 41H82.1731Z" fill="#676767"/>
</svg>
