<svg width="43" height="43" viewBox="0 0 43 43" fill="none" xmlns="http://www.w3.org/2000/svg">
<path d="M33.0306 20.9809C33.0306 30.2418 23.5453 35.9473 21.5741 37.034C21.4649 37.0942 21.3422 37.1258 21.2175 37.1258C21.0928 37.1258 20.9701 37.0942 20.8609 37.034C18.8882 35.9473 9.40576 30.2418 9.40576 20.9809C9.40576 13.5981 13.8354 8.43018 21.2182 8.43018C28.601 8.43018 33.0306 13.5981 33.0306 20.9809Z" stroke="white" stroke-width="1.4" stroke-linecap="round" stroke-linejoin="round"/>
<path d="M15.3125 20.2414C15.3125 21.8079 15.9348 23.3101 17.0424 24.4178C18.15 25.5254 19.6523 26.1476 21.2187 26.1476C22.7851 26.1476 24.2874 25.5254 25.395 24.4178C26.5027 23.3101 27.1249 21.8079 27.1249 20.2414C27.1249 18.675 26.5027 17.1727 25.395 16.0651C24.2874 14.9575 22.7851 14.3352 21.2187 14.3352C19.6523 14.3352 18.15 14.9575 17.0424 16.0651C15.9348 17.1727 15.3125 18.675 15.3125 20.2414V20.2414Z" stroke="white" stroke-width="1.4" stroke-linecap="round" stroke-linejoin="round"/>
</svg>
