<svg width="43" height="43" viewBox="0 0 43 43" fill="none" xmlns="http://www.w3.org/2000/svg">
<path d="M25.323 36.7563L25.3405 36.7685C26.8516 37.7307 28.6458 38.1485 30.4265 37.953C32.2073 37.7574 33.868 36.9602 35.1343 35.693L36.2344 34.5929C36.4781 34.3493 36.6715 34.06 36.8035 33.7416C36.9354 33.4233 37.0033 33.082 37.0033 32.7373C37.0033 32.3927 36.9354 32.0514 36.8035 31.733C36.6715 31.4147 36.4781 31.1254 36.2344 30.8818L31.5946 26.2455C31.3509 26.0017 31.0617 25.8083 30.7433 25.6764C30.4249 25.5444 30.0836 25.4765 29.739 25.4765C29.3943 25.4765 29.0531 25.5444 28.7347 25.6764C28.4163 25.8083 28.127 26.0017 27.8834 26.2455C27.3915 26.7373 26.7243 27.0135 26.0287 27.0135C25.3331 27.0135 24.666 26.7373 24.174 26.2455L16.7552 18.8249C16.2634 18.333 15.9871 17.6658 15.9871 16.9702C15.9871 16.2746 16.2634 15.6075 16.7552 15.1155C16.999 14.8719 17.1924 14.5826 17.3243 14.2643C17.4563 13.9459 17.5242 13.6046 17.5242 13.26C17.5242 12.9153 17.4563 12.574 17.3243 12.2557C17.1924 11.9373 16.999 11.648 16.7552 11.4044L12.1172 6.76808C11.6252 6.27628 10.9581 6 10.2625 6C9.56685 6 8.89972 6.27628 8.40777 6.76808L7.30597 7.86813C6.03906 9.13464 5.24214 10.7955 5.04689 12.5762C4.85165 14.3569 5.26976 16.151 6.23215 17.6619L6.24264 17.6794C11.3252 25.1993 17.8022 31.6751 25.323 36.7563V36.7563Z" stroke="white" stroke-width="1.4" stroke-linecap="round" stroke-linejoin="round"/>
</svg>
