<svg width="140" height="140" viewBox="0 0 140 140" fill="none" xmlns="http://www.w3.org/2000/svg">
<path d="M42 69H52V97H42V69ZM84 97H56V67.394L62.084 58.268L63.774 46.434C63.9142 45.4822 64.3911 44.6123 65.1181 43.9822C65.8451 43.3521 66.774 43.0036 67.736 43H68C69.5908 43.0016 71.116 43.6342 72.2409 44.7591C73.3658 45.884 73.9984 47.4092 74 49V61H90C92.1209 61.0026 94.1542 61.8464 95.6539 63.3461C97.1536 64.8458 97.9974 66.8791 98 69V83C97.9947 86.7114 96.518 90.2693 93.8937 92.8937C91.2693 95.518 87.7114 96.9947 84 97Z" fill="#676767"/>
</svg>
