<svg width="30" height="54" viewBox="0 0 30 54" fill="none" xmlns="http://www.w3.org/2000/svg">
<path fill-rule="evenodd" clip-rule="evenodd" d="M14.8054 0C19.2396 2.13011 22.9818 5.46949 25.6009 9.63347C28.2201 13.7974 29.6098 18.6166 29.6098 23.5358C29.6098 28.4551 28.2201 33.2743 25.6009 37.4382C22.9818 41.6022 19.2396 44.9416 14.8054 47.0717C10.371 44.9418 6.62857 41.6025 4.00916 37.4385C1.38976 33.2745 0 28.4552 0 23.5358C0 18.6165 1.38976 13.7972 4.00916 9.63317C6.62857 5.46917 10.371 2.12988 14.8054 0Z" fill="#219653"/>
<path d="M14.5 53.2999V14.7749" stroke="#F2994A" stroke-linecap="round" stroke-linejoin="round"/>
<path d="M14.5 25L19 18" stroke="#F2994A" stroke-linecap="round"/>
<path d="M14.5 36L10 29" stroke="#F2994A" stroke-linecap="round"/>
</svg>
