<svg width="213" height="378" viewBox="0 0 213 378" fill="none" xmlns="http://www.w3.org/2000/svg">
<mask id="path-1-outside-1_375_344" maskUnits="userSpaceOnUse" x="0" y="0" width="213" height="378" fill="black">
<rect fill="white" width="213" height="378"/>
<path d="M105.462 5.03421L154.377 24.2393L154.39 24.2442L184.75 37.1096C185.368 37.3711 186.031 37.5059 186.701 37.5059H198C203.523 37.5059 208 41.9831 208 47.5059V319.838C208 325.361 203.523 329.838 198 329.838H190.698C189.908 329.838 189.129 330.025 188.426 330.384L116.483 367.077C116.465 367.086 116.471 367.113 116.492 367.113C116.511 367.113 116.518 367.14 116.501 367.149L107.952 371.811C107.221 372.209 106.34 372.219 105.602 371.835L96.5362 367.132C96.527 367.127 96.5304 367.113 96.5408 367.113C96.5512 367.113 96.5546 367.099 96.5453 367.095L24.9067 330.388C24.201 330.026 23.4195 329.838 22.6266 329.838H15C9.47718 329.838 5.00005 325.361 5 319.838V47.5059C5.00002 41.9831 9.47717 37.5059 15 37.5059H25.2897C25.9431 37.5059 26.5902 37.3778 27.1943 37.1289L61.0645 23.1748L105.088 5.03812C105.207 4.98875 105.342 4.98722 105.462 5.03421Z"/>
</mask>
<path d="M105.462 5.03421L154.377 24.2393L154.39 24.2442L184.75 37.1096C185.368 37.3711 186.031 37.5059 186.701 37.5059H198C203.523 37.5059 208 41.9831 208 47.5059V319.838C208 325.361 203.523 329.838 198 329.838H190.698C189.908 329.838 189.129 330.025 188.426 330.384L116.483 367.077C116.465 367.086 116.471 367.113 116.492 367.113C116.511 367.113 116.518 367.14 116.501 367.149L107.952 371.811C107.221 372.209 106.34 372.219 105.602 371.835L96.5362 367.132C96.527 367.127 96.5304 367.113 96.5408 367.113C96.5512 367.113 96.5546 367.099 96.5453 367.095L24.9067 330.388C24.201 330.026 23.4195 329.838 22.6266 329.838H15C9.47718 329.838 5.00005 325.361 5 319.838V47.5059C5.00002 41.9831 9.47717 37.5059 15 37.5059H25.2897C25.9431 37.5059 26.5902 37.3778 27.1943 37.1289L61.0645 23.1748L105.088 5.03812C105.207 4.98875 105.342 4.98722 105.462 5.03421Z" fill="#1F8B58"/>
<path d="M105.462 5.03421L107.289 0.380076L107.281 0.376928L105.462 5.03421ZM154.377 24.2393L152.55 28.8934L152.566 28.8998L152.582 28.906L154.377 24.2393ZM154.39 24.2442L156.34 19.6405L156.263 19.6076L156.185 19.5774L154.39 24.2442ZM208 47.5059H213V47.5059L208 47.5059ZM208 319.838L213 319.838V319.838H208ZM5 319.838H0V319.838L5 319.838ZM5 47.5059L0 47.5059V47.5059H5ZM61.0645 23.1748L59.1599 18.5518L59.1598 18.5518L61.0645 23.1748ZM105.088 5.03812L106.992 9.66117L106.999 9.6585L105.088 5.03812ZM96.5453 367.095L94.2653 371.544L96.5453 367.095ZM96.5362 367.132L94.2336 371.57L96.5362 367.132ZM107.952 371.811L110.345 376.201V376.201L107.952 371.811ZM105.602 371.835L107.904 367.397L105.602 371.835ZM116.501 367.149L114.107 362.759L116.501 367.149ZM116.483 367.077L118.755 371.531L116.483 367.077ZM27.1943 37.1289L25.2897 32.5059L27.1943 37.1289ZM188.426 330.384L190.698 334.838L188.426 330.384ZM24.9067 330.388L27.1867 325.938V325.938L24.9067 330.388ZM184.75 37.1096L182.8 41.7133L184.75 37.1096ZM105.462 5.03421L103.635 9.68835L152.55 28.8934L154.377 24.2393L156.204 19.5852L107.289 0.380084L105.462 5.03421ZM154.377 24.2393L152.582 28.906L152.595 28.9109L154.39 24.2442L156.185 19.5774L156.172 19.5726L154.377 24.2393ZM154.39 24.2442L152.439 28.8479L182.8 41.7133L184.75 37.1096L186.701 32.5059L156.34 19.6405L154.39 24.2442ZM186.701 37.5059V42.5059H198V37.5059V32.5059H186.701V37.5059ZM198 37.5059V42.5059C200.761 42.5059 203 44.7445 203 47.5059L208 47.5059L213 47.5059C213 39.2217 206.284 32.5059 198 32.5059V37.5059ZM208 47.5059H203V319.838H208H213V47.5059H208ZM208 319.838L203 319.838C203 322.599 200.761 324.838 198 324.838V329.838V334.838C206.284 334.838 213 328.122 213 319.838L208 319.838ZM198 329.838V324.838H190.698V329.838V334.838H198V329.838ZM188.426 330.384L186.154 325.93L114.211 362.623L116.483 367.077L118.755 371.531L190.698 334.838L188.426 330.384ZM116.501 367.149L114.107 362.759L105.558 367.421L107.952 371.811L110.345 376.201L118.894 371.539L116.501 367.149ZM105.602 371.835L107.904 367.397L98.8388 362.694L96.5362 367.132L94.2336 371.57L103.299 376.274L105.602 371.835ZM96.5453 367.095L98.8254 362.645L27.1867 325.938L24.9067 330.388L22.6266 334.838L94.2653 371.544L96.5453 367.095ZM22.6266 329.838V324.838H15V329.838V334.838H22.6266V329.838ZM15 329.838V324.838C12.2386 324.838 10 322.599 10 319.838L5 319.838L0 319.838C7.15256e-05 328.122 6.71572 334.838 15 334.838V329.838ZM5 319.838H10V47.5059H5H0V319.838H5ZM5 47.5059L10 47.5059C10 44.7445 12.2386 42.5059 15 42.5059V37.5059V32.5059C6.71572 32.5059 3.00407e-05 39.2217 0 47.5059L5 47.5059ZM15 37.5059V42.5059H25.2897V37.5059V32.5059H15V37.5059ZM27.1943 37.1289L29.0989 41.7519L62.9691 27.7979L61.0645 23.1748L59.1598 18.5518L25.2897 32.5059L27.1943 37.1289ZM61.0645 23.1748L62.969 27.7979L106.992 9.66116L105.088 5.03812L103.183 0.415079L59.1599 18.5518L61.0645 23.1748ZM96.5408 367.113V372.113C101.801 372.113 103.507 365.043 98.8254 362.645L96.5453 367.095L94.2653 371.544C89.6027 369.155 91.3018 362.113 96.5408 362.113V367.113ZM96.5362 367.132L98.8388 362.694C103.477 365.1 101.766 372.113 96.5408 372.113V367.113V362.113C91.2944 362.113 89.577 369.154 94.2336 371.57L96.5362 367.132ZM105.088 5.03812L106.999 9.6585C105.932 10.1 104.729 10.116 103.643 9.6915L105.462 5.03421L107.281 0.376928C105.954 -0.141572 104.483 -0.122477 103.177 0.417742L105.088 5.03812ZM107.952 371.811L105.558 367.421C106.287 367.024 107.167 367.014 107.904 367.397L105.602 371.835L103.299 376.274C105.514 377.423 108.155 377.395 110.345 376.201L107.952 371.811ZM116.492 367.113V372.113C111.331 372.113 109.576 365.23 114.107 362.759L116.501 367.149L118.894 371.539C123.46 369.049 121.692 362.113 116.492 362.113V367.113ZM116.483 367.077L114.211 362.623C109.511 365.02 111.218 372.113 116.492 372.113V367.113V362.113C121.725 362.113 123.419 369.153 118.755 371.531L116.483 367.077ZM25.2897 37.5059V42.5059C26.5965 42.5059 27.8906 42.2498 29.0989 41.7519L27.1943 37.1289L25.2897 32.5059H25.2897V37.5059ZM190.698 329.838V324.838C189.118 324.838 187.561 325.212 186.154 325.93L188.426 330.384L190.698 334.838V334.838V329.838ZM24.9067 330.388L27.1867 325.938C25.7754 325.215 24.2124 324.838 22.6266 324.838V329.838V334.838H22.6266L24.9067 330.388ZM184.75 37.1096L182.8 41.7133C184.034 42.2364 185.361 42.5059 186.701 42.5059V37.5059V32.5059V32.5059L184.75 37.1096Z" fill="#FFD54F" mask="url(#path-1-outside-1_375_344)"/>
<path d="M108.461 46.638C107.478 46.2296 106.373 46.2296 105.391 46.638L79.0736 57.5751C75.983 58.8596 75.7425 63.1455 78.67 64.7676L104.987 79.3502C106.193 80.0185 107.658 80.0185 108.864 79.3502L115.922 75.4397C118.96 73.7564 118.556 69.2671 115.267 68.1525L109.005 66.0308C108.346 65.8076 107.622 65.9443 106.926 65.946C106.281 65.946 105.662 65.662 105.206 65.1565C104.75 64.6509 104.493 63.9653 104.493 63.2504C104.493 62.5354 104.75 61.8498 105.206 61.3443C105.454 61.0692 105.75 60.8598 106.073 60.7259C106.479 60.5572 106.809 60.9744 106.692 61.3985C106.597 61.7384 106.784 62.0929 107.118 62.2067L109.337 62.9633C109.34 62.9642 109.342 62.9666 109.342 62.9695C109.343 62.9724 109.345 62.9748 109.347 62.9758L113.501 64.3835L136.037 72.0675C136.72 72.3003 137.179 72.9417 137.179 73.663C137.179 74.192 136.901 74.6729 136.604 75.1105C136.527 75.2237 136.458 75.3437 136.398 75.4697C136.212 75.8576 136.115 76.2897 136.115 76.7287C136.115 77.1777 136.217 77.6195 136.41 78.0139C136.752 78.7095 137.102 79.476 136.973 80.2401C136.244 84.5467 136.134 91.8232 136.118 96.248C136.113 97.5344 136.665 98.859 137.818 99.4291C138.364 99.699 138.768 99.7005 139.322 99.4219C140.45 98.8551 140.981 97.5531 140.977 96.2907C140.961 91.871 140.852 84.5633 140.122 80.2423C139.993 79.4778 140.343 78.7108 140.684 78.0146C140.878 77.6199 140.979 77.1778 140.979 76.7285C140.979 76.2891 140.882 75.8563 140.697 75.4679C140.356 74.7542 139.915 74.035 139.915 73.244V72.5122C139.915 71.1399 139.042 69.9197 137.743 69.4768L137.401 69.3602C134.9 68.5072 134.596 65.0921 136.908 63.8112C139.138 62.5755 138.955 59.3109 136.6 58.3325L108.461 46.638ZM86.9238 72.8536C86.5037 72.8536 86.1468 73.1608 86.0844 73.5761L84.7961 82.1427C84.4663 84.3356 85.9976 86.3861 88.0697 87.1758C91.0778 88.3222 94.2874 90.1944 97.3132 92.2902C99.8019 94.0141 102.133 95.9063 104.026 97.7422C105.578 99.2467 108.274 99.2467 109.826 97.7422C111.719 95.9063 114.05 94.0141 116.538 92.2902C119.564 90.1944 122.774 88.3222 125.782 87.1758C127.854 86.3861 129.385 84.3355 129.055 82.1426L127.767 73.5761C127.704 73.1608 127.348 72.8536 126.928 72.8536C126.784 72.8536 126.642 72.8902 126.516 72.9599L108.864 82.7409C107.658 83.4092 106.193 83.4092 104.987 82.7409L87.3352 72.9599C87.2093 72.8902 87.0677 72.8536 86.9238 72.8536Z" fill="white"/>
<path d="M44.9493 159.184C45.7767 165.865 50.606 170.282 50.606 170.282C50.606 170.282 54.0957 163.868 53.2683 157.188C52.4401 150.503 47.6108 146.086 47.6108 146.086C47.6108 146.086 44.1254 152.507 44.9493 159.184ZM45.459 182.636C48.6053 187.702 54.2774 187.742 54.2774 187.742C54.2774 187.742 54.8493 179.568 51.703 174.502C48.5567 169.436 42.8838 169.391 42.8838 169.391C42.8838 169.391 42.3127 177.57 45.459 182.636ZM52.1617 202.364C56.5682 204.689 61.5362 200.818 61.5362 200.818C61.5362 200.818 59.3566 193.174 54.9501 190.849C50.5436 188.524 45.5755 192.395 45.5755 192.395C45.5755 192.395 47.7552 200.039 52.1617 202.364ZM65.4992 214.945C70.129 215.907 74.4248 210.619 74.4248 210.619C74.4248 210.619 71.2113 203.772 66.5806 202.807C61.9507 201.845 57.6585 207.136 57.6585 207.136C57.6585 207.136 60.8693 213.984 65.4992 214.945ZM54.0062 139.581C51.7268 145.442 53.5629 153.262 53.5629 153.262C53.5629 153.262 59.1023 151.585 61.3816 145.724C63.661 139.863 61.824 132.038 61.824 132.038C61.824 132.038 56.2856 133.719 54.0062 139.581Z" fill="#DDA800" fill-opacity="0.8"/>
<path d="M168.902 159.184C168.075 165.865 163.246 170.282 163.246 170.282C163.246 170.282 159.756 163.868 160.583 157.188C161.412 150.503 166.241 146.086 166.241 146.086C166.241 146.086 169.726 152.507 168.902 159.184ZM168.393 182.636C165.246 187.702 159.574 187.742 159.574 187.742C159.574 187.742 159.002 179.568 162.149 174.502C165.295 169.436 170.968 169.391 170.968 169.391C170.968 169.391 171.539 177.57 168.393 182.636ZM161.69 202.364C157.283 204.689 152.315 200.818 152.315 200.818C152.315 200.818 154.495 193.174 158.901 190.849C163.308 188.524 168.276 192.395 168.276 192.395C168.276 192.395 166.096 200.039 161.69 202.364ZM148.352 214.945C143.723 215.907 139.427 210.619 139.427 210.619C139.427 210.619 142.64 203.772 147.271 202.807C151.901 201.845 156.193 207.136 156.193 207.136C156.193 207.136 152.982 213.984 148.352 214.945ZM159.845 139.581C162.125 145.442 160.289 153.262 160.289 153.262C160.289 153.262 154.749 151.585 152.47 145.724C150.191 139.863 152.028 132.038 152.028 132.038C152.028 132.038 157.566 133.719 159.845 139.581Z" fill="#DDA800" fill-opacity="0.8"/>
<path d="M97.7695 149.992V191H91.4824V156.223H91.2559L81.457 162.623V156.676L91.6524 149.992H97.7695ZM114.848 167.125C119.004 167.094 121.973 169.375 121.973 172.781C121.973 176.156 119.004 178.5 114.848 178.469C110.691 178.5 107.723 176.156 107.723 172.781C107.723 169.375 110.691 167.094 114.848 167.125ZM114.848 169.125C112.066 169.094 110.098 170.625 110.129 172.781C110.098 174.969 112.066 176.469 114.848 176.438C117.66 176.469 119.629 174.969 119.629 172.781C119.629 170.625 117.66 169.094 114.848 169.125ZM128.598 165.781V193.562H126.191V165.781H128.598ZM105.629 180.844C110.848 180.844 117.973 180.75 124.16 179.844L124.316 181.688C121.66 182.172 118.895 182.469 116.223 182.625V192.688H113.785V182.781C110.957 182.906 108.285 182.922 105.973 182.938L105.629 180.844Z" fill="white"/>
<path d="M88.0195 279.354V296.854H86.2422V287.811H83.9766V295.956H82.2773V279.706H83.9766V286.288H86.2422V279.354H88.0195ZM80.1484 281.464V282.968H75.4414V291.073C77.5898 291.053 79.2109 290.956 81.0859 290.604L81.2227 292.128C79.1133 292.557 77.3164 292.635 74.7578 292.655H73.5859V281.464H80.1484ZM104.035 279.374V284.999H106.574V286.542H104.035V292.46H102.18V279.374H104.035ZM100.734 281.405V282.909H90.3047V281.405H94.6016V279.354H96.457V281.405H100.734ZM95.5195 283.749C98.0391 283.749 99.7578 285.057 99.7578 287.05C99.7578 289.042 98.0391 290.331 95.5195 290.331C92.9805 290.331 91.2617 289.042 91.2617 287.05C91.2617 285.057 92.9805 283.749 95.5195 283.749ZM95.5195 285.175C94.0352 285.175 93.0391 285.897 93.0586 287.05C93.0391 288.182 94.0352 288.885 95.5195 288.885C97.0039 288.885 98 288.182 98.0195 287.05C98 285.897 97.0039 285.175 95.5195 285.175ZM104.777 294.979V296.483H92.9414V291.425H94.7969V294.979H104.777ZM116.809 280.839V289.061H108.488V280.839H116.809ZM110.305 282.343V287.577H114.973V282.343H110.305ZM122.082 279.374V291.913H120.227V279.374H122.082ZM122.609 294.803V296.327H110.637V290.702H112.512V294.803H122.609ZM138.84 280.175V281.483C138.84 282.772 138.84 284.315 138.449 286.346H140.871V287.85H133.762V290.839H138.918V296.854H137.062V292.323H126.496V290.839H131.906V287.85H124.855V286.346H136.574C136.984 284.393 137.004 282.928 137.004 281.678H126.867V280.175H138.84ZM76.1348 305.034V306.909C76.1152 309.116 76.1152 311.421 75.4902 314.76L73.6738 314.565C74.2793 311.401 74.2793 309.057 74.2793 306.909V306.538H63.5566V305.034H76.1348ZM77.873 316.948V318.491H61.916V316.948H65.6855V311.284H67.541V316.948H70.0605V311.284H71.877V316.948H77.873ZM95.1582 311.694V313.198H91.0371V315.229H93.2051V320.854H91.3301V316.694H80.9785V315.229H83.2832V313.198H79.2012V311.694H95.1582ZM87.1699 303.745C90.998 303.725 93.4199 305.014 93.4199 307.124C93.4199 309.233 90.998 310.522 87.1699 310.503C83.3418 310.522 80.9199 309.233 80.9199 307.124C80.9199 305.014 83.3418 303.725 87.1699 303.745ZM87.1699 305.21C84.4746 305.19 82.8145 305.913 82.834 307.124C82.8145 308.354 84.4746 309.057 87.1699 309.057C89.8457 309.057 91.5059 308.354 91.5059 307.124C91.5059 305.913 89.8457 305.19 87.1699 305.21ZM85.1387 315.229H89.2207V313.198H85.1387V315.229ZM117.385 317.065V318.589H101.369V317.065H117.385ZM105.061 304.565V307.71H113.654V304.565H115.49V313.745H103.205V304.565H105.061ZM105.061 312.28H113.654V309.175H105.061V312.28ZM133.576 303.374V316.382H131.818V310.034H129.67V315.913H127.932V303.686H129.67V308.51H131.818V303.374H133.576ZM134.084 318.979V320.483H121.975V315.171H123.811V318.979H134.084ZM126.037 304.839V309.975H121.232V312.339C123.4 312.339 125.051 312.221 126.975 311.85L127.17 313.335C124.963 313.745 123.146 313.823 120.588 313.823H119.436V308.569H124.26V306.323H119.396V304.839H126.037ZM150.119 311.655V313.178H137.932V304.917H149.963V306.44H139.768V311.655H150.119ZM151.955 317.007V318.55H135.939V317.007H151.955Z" fill="white"/>
</svg>
