<svg width="213" height="377" viewBox="0 0 213 377" fill="none" xmlns="http://www.w3.org/2000/svg">
<mask id="path-1-outside-1_375_375" maskUnits="userSpaceOnUse" x="0" y="0" width="213" height="377" fill="black">
<rect fill="white" width="213" height="377"/>
<path d="M105.462 5.03421L154.377 24.2393L154.39 24.2442L184.75 37.1096C185.368 37.3711 186.031 37.5059 186.701 37.5059H198C203.523 37.5059 208 41.983 208 47.5059V319.838C208 325.361 203.523 329.838 198 329.838H190.698C189.908 329.838 189.129 330.025 188.426 330.384L116.3 367.171C116.287 367.177 116.273 367.181 116.258 367.181C116.243 367.181 116.228 367.185 116.215 367.192L109.119 371.062C107.659 371.858 105.898 371.876 104.422 371.11L96.9088 367.212C96.8693 367.191 96.8254 367.181 96.7809 367.181C96.7368 367.181 96.6934 367.17 96.6542 367.15L24.9067 330.388C24.201 330.026 23.4195 329.838 22.6266 329.838H15C9.47719 329.838 5.00007 325.361 5 319.838V47.5059C5 41.983 9.47715 37.5059 15 37.5059H25.2897C25.9431 37.5059 26.5902 37.3778 27.1943 37.1289L61.0645 23.1748L105.088 5.03812C105.207 4.98875 105.342 4.98722 105.462 5.03421Z"/>
</mask>
<path d="M105.462 5.03421L154.377 24.2393L154.39 24.2442L184.75 37.1096C185.368 37.3711 186.031 37.5059 186.701 37.5059H198C203.523 37.5059 208 41.983 208 47.5059V319.838C208 325.361 203.523 329.838 198 329.838H190.698C189.908 329.838 189.129 330.025 188.426 330.384L116.3 367.171C116.287 367.177 116.273 367.181 116.258 367.181C116.243 367.181 116.228 367.185 116.215 367.192L109.119 371.062C107.659 371.858 105.898 371.876 104.422 371.11L96.9088 367.212C96.8693 367.191 96.8254 367.181 96.7809 367.181C96.7368 367.181 96.6934 367.17 96.6542 367.15L24.9067 330.388C24.201 330.026 23.4195 329.838 22.6266 329.838H15C9.47719 329.838 5.00007 325.361 5 319.838V47.5059C5 41.983 9.47715 37.5059 15 37.5059H25.2897C25.9431 37.5059 26.5902 37.3778 27.1943 37.1289L61.0645 23.1748L105.088 5.03812C105.207 4.98875 105.342 4.98722 105.462 5.03421Z" fill="#FFD54F"/>
<path d="M105.462 5.03421L107.289 0.380076L107.281 0.376928L105.462 5.03421ZM154.377 24.2393L152.55 28.8934L152.566 28.8998L152.582 28.906L154.377 24.2393ZM154.39 24.2442L156.34 19.6405L156.263 19.6076L156.185 19.5774L154.39 24.2442ZM208 47.5059H213V47.5059H208ZM208 319.838L213 319.838V319.838H208ZM5 319.838H0V319.838L5 319.838ZM5 47.5059H0V47.5059H5ZM61.0645 23.1748L59.1599 18.5518L59.1598 18.5518L61.0645 23.1748ZM105.088 5.03812L106.992 9.66117L106.999 9.6585L105.088 5.03812ZM96.6542 367.15L94.3742 371.6L96.6542 367.15ZM96.9088 367.212L99.2114 362.774L96.9088 367.212ZM109.119 371.062L111.512 375.451L109.119 371.062ZM104.422 371.11L106.725 366.672L104.422 371.11ZM116.215 367.192L118.609 371.582L116.215 367.192ZM116.3 367.171L118.571 371.625L116.3 367.171ZM27.1943 37.1289L25.2897 32.5059L27.1943 37.1289ZM188.426 330.384L190.698 334.838L188.426 330.384ZM24.9067 330.388L22.6266 334.838L24.9067 330.388ZM184.75 37.1096L182.8 41.7133L184.75 37.1096ZM105.462 5.03421L103.635 9.68835L152.55 28.8934L154.377 24.2393L156.204 19.5852L107.289 0.380084L105.462 5.03421ZM154.377 24.2393L152.582 28.906L152.595 28.9109L154.39 24.2442L156.185 19.5774L156.172 19.5726L154.377 24.2393ZM154.39 24.2442L152.439 28.8479L182.8 41.7133L184.75 37.1096L186.701 32.5059L156.34 19.6405L154.39 24.2442ZM186.701 37.5059V42.5059H198V37.5059V32.5059H186.701V37.5059ZM198 37.5059V42.5059C200.761 42.5059 203 44.7445 203 47.5059H208H213C213 39.2216 206.284 32.5059 198 32.5059V37.5059ZM208 47.5059H203V319.838H208H213V47.5059H208ZM208 319.838L203 319.838C203 322.599 200.761 324.838 198 324.838V329.838V334.838C206.284 334.838 213 328.122 213 319.838L208 319.838ZM198 329.838V324.838H190.698V329.838V334.838H198V329.838ZM188.426 330.384L186.154 325.93L114.028 362.717L116.3 367.171L118.571 371.625L190.698 334.838L188.426 330.384ZM116.215 367.192L113.821 362.802L106.725 366.672L109.119 371.062L111.512 375.451L118.609 371.582L116.215 367.192ZM104.422 371.11L106.725 366.672L99.2114 362.774L96.9088 367.212L94.6061 371.65L102.119 375.548L104.422 371.11ZM96.6542 367.15L98.9343 362.7L27.1867 325.938L24.9067 330.388L22.6266 334.838L94.3742 371.6L96.6542 367.15ZM22.6266 329.838V324.838H15V329.838V334.838H22.6266V329.838ZM15 329.838V324.838C12.2387 324.838 10 322.599 10 319.838L5 319.838L0 319.838C9.91821e-05 328.122 6.71571 334.838 15 334.838V329.838ZM5 319.838H10V47.5059H5H0V319.838H5ZM5 47.5059L10 47.5059C10 44.7445 12.2386 42.5059 15 42.5059V37.5059V32.5059C6.71573 32.5059 2.38419e-06 39.2216 0 47.5059H5ZM15 37.5059V42.5059H25.2897V37.5059V32.5059H15V37.5059ZM27.1943 37.1289L29.0989 41.7519L62.9691 27.7979L61.0645 23.1748L59.1598 18.5518L25.2897 32.5059L27.1943 37.1289ZM61.0645 23.1748L62.969 27.7979L106.992 9.66116L105.088 5.03812L103.183 0.415079L59.1599 18.5518L61.0645 23.1748ZM96.7809 367.181V362.181C97.5297 362.181 98.2678 362.359 98.9343 362.7L96.6542 367.15L94.3742 371.6C95.119 371.982 95.944 372.181 96.7809 372.181V367.181ZM96.9088 367.212L99.2114 362.774C98.4605 362.384 97.6269 362.181 96.7809 362.181V367.181V372.181C96.0239 372.181 95.278 371.999 94.6061 371.65L96.9088 367.212ZM105.088 5.03812L106.999 9.6585C105.932 10.1 104.729 10.116 103.643 9.6915L105.462 5.03421L107.281 0.376928C105.954 -0.141572 104.483 -0.122477 103.177 0.417742L105.088 5.03812ZM109.119 371.062L106.725 366.672V366.672L104.422 371.11L102.119 375.548C105.072 377.08 108.592 377.044 111.512 375.451L109.119 371.062ZM116.258 367.181V362.181C115.407 362.181 114.569 362.394 113.821 362.802L116.215 367.192L118.609 371.582C117.888 371.975 117.08 372.181 116.258 372.181V367.181ZM116.3 367.171L114.028 362.717C114.719 362.364 115.483 362.181 116.258 362.181V367.181V372.181C117.062 372.181 117.855 371.99 118.571 371.625L116.3 367.171ZM25.2897 37.5059V42.5059C26.5965 42.5059 27.8906 42.2498 29.0989 41.7519L27.1943 37.1289L25.2897 32.5059H25.2897V37.5059ZM190.698 329.838V324.838C189.118 324.838 187.561 325.212 186.154 325.93L188.426 330.384L190.698 334.838V334.838V329.838ZM24.9067 330.388L27.1867 325.938C25.7754 325.215 24.2124 324.838 22.6266 324.838V329.838V334.838H22.6266L24.9067 330.388ZM184.75 37.1096L182.8 41.7133C184.034 42.2364 185.361 42.5059 186.701 42.5059V37.5059V32.5059V32.5059L184.75 37.1096Z" fill="#F2AA02" mask="url(#path-1-outside-1_375_375)"/>
<path d="M107.926 78.6255C109.699 78.6255 111.454 78.9537 113.092 79.5913C114.73 80.2289 116.218 81.1634 117.472 82.3416C118.725 83.5197 119.72 84.9184 120.398 86.4577C121.077 87.997 121.426 89.6468 121.426 91.313C121.426 92.9791 121.077 94.629 120.398 96.1683C119.72 97.7076 118.725 99.1063 117.472 100.284C116.218 101.463 114.73 102.397 113.092 103.035C111.454 103.672 109.699 104 107.926 104C104.345 104 100.912 102.664 98.3798 100.284C95.8481 97.905 94.4258 94.6779 94.4258 91.313C94.4258 87.9481 95.8481 84.7209 98.3798 82.3416C100.912 79.9622 104.345 78.6255 107.926 78.6255ZM89.0644 46.798C88.6871 47.7799 88.5604 48.8313 88.6944 49.8677C88.8284 50.904 89.2193 51.8963 89.8358 52.7647L105.704 75.1346C101.289 75.6694 97.2606 77.7783 94.4528 81.0252L82.5458 64.2415C81.4887 62.7516 80.925 61.0007 80.9258 59.21V58.8801C80.9256 57.238 81.4003 55.6267 82.2989 54.2184L84.7366 50.3976C85.7537 48.8101 87.2641 47.5538 89.0644 46.798ZM126.783 46.798C128.586 47.5542 130.097 48.8119 131.115 50.4012L133.553 54.222C134.451 55.6285 134.926 57.2416 134.926 58.8837V59.21C134.926 60.9995 134.362 62.749 133.306 64.2379L121.395 81.0252C118.587 77.7783 114.559 75.6694 110.144 75.1346L126.016 52.7684C126.631 51.8993 127.021 50.9067 127.153 49.8704C127.286 48.8341 127.158 47.783 126.779 46.8016M120.099 46.0005C120.688 46.0007 121.266 46.1512 121.771 46.4358C122.276 46.7204 122.69 47.1285 122.968 47.6166C123.246 48.1047 123.378 48.6545 123.349 49.2075C123.321 49.7604 123.133 50.2958 122.807 50.7565L118.463 56.8755H97.3881L93.0449 50.7565C92.7197 50.2955 92.5333 49.7604 92.5056 49.2079C92.4778 48.6554 92.6098 48.1062 92.8874 47.6185C93.1651 47.1308 93.5781 46.7229 94.0825 46.438C94.587 46.1531 95.1641 46.0019 95.7526 46.0005H120.099Z" fill="#676767"/>
<path d="M45.9493 157.185C46.7767 163.865 51.606 168.282 51.606 168.282C51.606 168.282 55.0957 161.868 54.2683 155.188C53.4401 148.504 48.6108 144.086 48.6108 144.086C48.6108 144.086 45.1254 150.507 45.9493 157.185ZM46.459 180.636C49.6053 185.702 55.2774 185.743 55.2774 185.743C55.2774 185.743 55.8493 177.568 52.703 172.502C49.5567 167.436 43.8838 167.392 43.8838 167.392C43.8838 167.392 43.3127 175.57 46.459 180.636ZM53.1617 200.364C57.5682 202.689 62.5362 198.818 62.5362 198.818C62.5362 198.818 60.3566 191.174 55.9501 188.849C51.5436 186.524 46.5755 190.395 46.5755 190.395C46.5755 190.395 48.7552 198.039 53.1617 200.364ZM66.4992 212.946C71.129 213.907 75.4248 208.619 75.4248 208.619C75.4248 208.619 72.2113 201.772 67.5806 200.807C62.9507 199.846 58.6585 205.136 58.6585 205.136C58.6585 205.136 61.8693 211.984 66.4992 212.946ZM55.0062 137.581C52.7268 143.442 54.5629 151.262 54.5629 151.262C54.5629 151.262 60.1023 149.585 62.3816 143.724C64.661 137.863 62.824 130.039 62.824 130.039C62.824 130.039 57.2856 131.72 55.0062 137.581Z" fill="#DDA800" fill-opacity="0.8"/>
<path d="M169.902 157.185C169.075 163.865 164.246 168.282 164.246 168.282C164.246 168.282 160.756 161.868 161.583 155.188C162.412 148.504 167.241 144.086 167.241 144.086C167.241 144.086 170.726 150.507 169.902 157.185ZM169.393 180.636C166.246 185.702 160.574 185.743 160.574 185.743C160.574 185.743 160.002 177.568 163.149 172.502C166.295 167.436 171.968 167.392 171.968 167.392C171.968 167.392 172.539 175.57 169.393 180.636ZM162.69 200.364C158.283 202.689 153.315 198.818 153.315 198.818C153.315 198.818 155.495 191.174 159.901 188.849C164.308 186.524 169.276 190.395 169.276 190.395C169.276 190.395 167.096 198.039 162.69 200.364ZM149.352 212.946C144.723 213.907 140.427 208.619 140.427 208.619C140.427 208.619 143.64 201.772 148.271 200.807C152.901 199.846 157.193 205.136 157.193 205.136C157.193 205.136 153.982 211.984 149.352 212.946ZM160.845 137.581C163.125 143.442 161.289 151.262 161.289 151.262C161.289 151.262 155.749 149.585 153.47 143.724C151.191 137.863 153.028 130.039 153.028 130.039C153.028 130.039 158.566 131.72 160.845 137.581Z" fill="#DDA800" fill-opacity="0.8"/>
<path d="M98.7695 147.992V189H92.4824V154.223H92.2559L82.457 160.623V154.676L92.6524 147.992H98.7695ZM115.848 165.125C120.004 165.094 122.973 167.375 122.973 170.781C122.973 174.156 120.004 176.5 115.848 176.469C111.691 176.5 108.723 174.156 108.723 170.781C108.723 167.375 111.691 165.094 115.848 165.125ZM115.848 167.125C113.066 167.094 111.098 168.625 111.129 170.781C111.098 172.969 113.066 174.469 115.848 174.438C118.66 174.469 120.629 172.969 120.629 170.781C120.629 168.625 118.66 167.094 115.848 167.125ZM129.598 163.781V191.563H127.191V163.781H129.598ZM106.629 178.844C111.848 178.844 118.973 178.75 125.16 177.844L125.316 179.688C122.66 180.172 119.895 180.469 117.223 180.625V190.688H114.785V180.781C111.957 180.906 109.285 180.922 106.973 180.938L106.629 178.844Z" fill="#676767"/>
<path d="M98.6582 291.066V292.589H82.6426V291.066H98.6582ZM86.334 278.566V281.71H94.9277V278.566H96.7637V287.745H84.4785V278.566H86.334ZM86.334 286.281H94.9277V283.175H86.334V286.281ZM114.85 277.374V290.382H113.092V284.034H110.943V289.913H109.205V277.687H110.943V282.511H113.092V277.374H114.85ZM115.357 292.98V294.484H103.248V289.171H105.084V292.98H115.357ZM107.311 278.839V283.976H102.506V286.339C104.674 286.339 106.324 286.222 108.248 285.851L108.443 287.335C106.236 287.745 104.42 287.823 101.861 287.823H100.709V282.57H105.533V280.323H100.67V278.839H107.311ZM131.393 285.656V287.179H119.205V278.917H131.236V280.441H121.041V285.656H131.393ZM133.229 291.007V292.55H117.213V291.007H133.229ZM97.2324 301.374V311.726H95.377V309.597H90.9629V308.073H95.377V305.945H91.1387C90.0156 308.757 87.3887 310.74 83.5996 311.823L82.8574 310.378C86.998 309.187 89.4199 306.97 89.752 304.148H83.7559V302.624H91.7637C91.7637 303.269 91.6953 303.894 91.5879 304.48H95.377V301.374H97.2324ZM91.4707 311.921C95.0059 311.921 97.3301 313.21 97.3496 315.339C97.3301 317.468 95.0059 318.777 91.4707 318.777C87.877 318.777 85.5723 317.468 85.5723 315.339C85.5723 313.21 87.877 311.921 91.4707 311.921ZM91.4707 313.386C88.9707 313.386 87.4082 314.089 87.4082 315.339C87.4082 316.57 88.9707 317.292 91.4707 317.292C93.9316 317.292 95.4746 316.57 95.4941 315.339C95.4746 314.089 93.9316 313.386 91.4707 313.386ZM105.221 304.851C105.201 306.941 106.334 308.777 108.561 309.636L107.584 311.062C106.012 310.447 104.938 309.304 104.361 307.878C103.727 309.49 102.574 310.827 100.904 311.531L99.8887 310.085C102.232 309.109 103.424 306.999 103.424 304.851V304.265H100.318V302.761H108.209V304.265H105.221V304.851ZM114.85 301.374V312.038H113.092V307.409H111.1V311.491H109.322V301.687H111.1V305.886H113.092V301.374H114.85ZM108.99 312.409C112.643 312.409 114.928 313.601 114.947 315.613C114.928 317.624 112.643 318.835 108.99 318.816C105.338 318.835 103.053 317.624 103.072 315.613C103.053 313.601 105.338 312.409 108.99 312.409ZM108.99 313.835C106.451 313.835 104.889 314.499 104.908 315.613C104.889 316.745 106.451 317.39 108.99 317.39C111.529 317.39 113.072 316.745 113.092 315.613C113.072 314.499 111.529 313.835 108.99 313.835ZM125.553 302.409V307.507H119.771V309.929C122.818 309.939 124.479 309.87 126.451 309.499L126.627 311.003C124.498 311.374 122.701 311.433 119.205 311.433H117.936V306.101H123.697V303.894H117.916V302.409H125.553ZM131.803 301.374V312.136H129.947V309.05H126.666V307.566H129.947V305.398H126.666V303.913H129.947V301.374H131.803ZM131.803 313.015V318.874H129.947V314.519H119.928V313.015H131.803Z" fill="#676767"/>
</svg>
