<svg width="42" height="42" viewBox="0 0 42 42" fill="none" xmlns="http://www.w3.org/2000/svg">
<path d="M29.3422 0C29.8952 1.16553e-08 30.4257 0.219711 30.8168 0.610798C31.2078 1.00188 31.4275 1.53231 31.4275 2.08539C31.4275 2.63847 31.2078 3.1689 30.8168 3.55999C30.4257 3.95108 29.8952 4.17079 29.3422 4.17079C27.0251 4.17079 25.3127 5.61898 24.1704 8.03108C27.0876 6.80302 30.2111 6.37899 33.0078 7.12741C36.8357 8.15389 39.7552 10.325 41.1339 14.0092C42.4523 17.5312 42.2229 22.0843 40.7354 27.643C39.542 32.0988 37.3848 35.9753 34.456 38.5218C31.4739 41.1124 27.6854 42.3057 23.5865 41.2097C22.6908 40.9664 21.8233 40.6293 20.9983 40.2041C20.174 40.6291 19.3073 40.9662 18.4124 41.2097C14.3134 42.3057 10.525 41.1124 7.54516 38.5218C4.61402 35.973 2.45912 32.0988 1.26581 27.643C-0.224088 22.0843 -0.451165 17.5289 0.86495 14.0115C2.24594 10.3273 5.16549 8.15389 8.99335 7.12973C10.6895 6.67558 12.5038 6.65009 14.3227 6.9768C12.4041 5.20422 11.6627 2.75504 11.9106 2.3171C12.2141 1.79576 15.7639 1.0566 18.651 2.7226C19.6821 3.31809 20.4885 4.14298 21.084 4.97714C22.7361 2.26149 25.4008 0 29.3422 0Z" fill="white"/>
</svg>
