<svg width="42" height="38" viewBox="0 0 42 38" fill="none" xmlns="http://www.w3.org/2000/svg">
<path d="M8.4 2.13383e-07C11.9918 -0.000613077 15.4596 1.3208 18.1485 3.71474C20.8374 6.10869 22.5614 9.40948 22.995 12.9939C24.3642 11.5533 26.0102 10.4072 27.8331 9.62517C29.6561 8.84314 31.618 8.44145 33.6 8.44444H39.9C40.457 8.44444 40.9911 8.66687 41.3849 9.06278C41.7788 9.45868 42 9.99565 42 10.5556V12.6667C42 16.586 40.4513 20.3448 37.6945 23.1161C34.9377 25.8875 31.1987 27.4444 27.3 27.4444H23.1V35.8889C23.1 36.4488 22.8787 36.9858 22.4849 37.3817C22.0911 37.7776 21.557 38 21 38C20.443 38 19.9089 37.7776 19.5151 37.3817C19.1212 36.9858 18.9 36.4488 18.9 35.8889V21.1111H14.7C10.8013 21.1111 7.06231 19.5542 4.30553 16.7828C1.54875 14.0114 0 10.2526 0 6.33333V2.11111C0 1.55121 0.221249 1.01424 0.615076 0.61833C1.0089 0.22242 1.54305 2.13383e-07 2.1 2.13383e-07H8.4Z" fill="white"/>
</svg>
