<svg width="213" height="377" viewBox="0 0 213 377" fill="none" xmlns="http://www.w3.org/2000/svg">
<mask id="path-1-outside-1_375_360" maskUnits="userSpaceOnUse" x="0" y="0" width="213" height="377" fill="black">
<rect fill="white" width="213" height="377"/>
<path d="M105.462 5.03421L154.377 24.2393L154.39 24.2442L184.75 37.1096C185.368 37.3711 186.031 37.5059 186.701 37.5059H198C203.523 37.5059 208 41.983 208 47.5059V319.838C208 325.361 203.523 329.838 198 329.838H190.698C189.908 329.838 189.129 330.025 188.426 330.384L116.3 367.171C116.287 367.177 116.273 367.181 116.258 367.181C116.243 367.181 116.228 367.185 116.215 367.192L109.119 371.062C107.659 371.858 105.898 371.876 104.422 371.11L96.9088 367.212C96.8693 367.191 96.8254 367.181 96.7809 367.181C96.7368 367.181 96.6934 367.17 96.6542 367.15L24.9067 330.388C24.201 330.026 23.4195 329.838 22.6266 329.838H15C9.47719 329.838 5.00007 325.361 5 319.838V47.5059C5 41.983 9.47715 37.5059 15 37.5059H25.2897C25.9431 37.5059 26.5902 37.3778 27.1943 37.1289L61.0645 23.1748L105.088 5.03812C105.207 4.98875 105.342 4.98722 105.462 5.03421Z"/>
</mask>
<path d="M105.462 5.03421L154.377 24.2393L154.39 24.2442L184.75 37.1096C185.368 37.3711 186.031 37.5059 186.701 37.5059H198C203.523 37.5059 208 41.983 208 47.5059V319.838C208 325.361 203.523 329.838 198 329.838H190.698C189.908 329.838 189.129 330.025 188.426 330.384L116.3 367.171C116.287 367.177 116.273 367.181 116.258 367.181C116.243 367.181 116.228 367.185 116.215 367.192L109.119 371.062C107.659 371.858 105.898 371.876 104.422 371.11L96.9088 367.212C96.8693 367.191 96.8254 367.181 96.7809 367.181C96.7368 367.181 96.6934 367.17 96.6542 367.15L24.9067 330.388C24.201 330.026 23.4195 329.838 22.6266 329.838H15C9.47719 329.838 5.00007 325.361 5 319.838V47.5059C5 41.983 9.47715 37.5059 15 37.5059H25.2897C25.9431 37.5059 26.5902 37.3778 27.1943 37.1289L61.0645 23.1748L105.088 5.03812C105.207 4.98875 105.342 4.98722 105.462 5.03421Z" fill="#FFD54F"/>
<path d="M105.462 5.03421L107.289 0.380076L107.281 0.376928L105.462 5.03421ZM154.377 24.2393L152.55 28.8934L152.566 28.8998L152.582 28.906L154.377 24.2393ZM154.39 24.2442L156.34 19.6405L156.263 19.6076L156.185 19.5774L154.39 24.2442ZM208 47.5059H213V47.5059H208ZM208 319.838L213 319.838V319.838H208ZM5 319.838H0V319.838L5 319.838ZM5 47.5059H0V47.5059H5ZM61.0645 23.1748L59.1599 18.5518L59.1598 18.5518L61.0645 23.1748ZM105.088 5.03812L106.992 9.66117L106.999 9.6585L105.088 5.03812ZM96.6542 367.15L94.3742 371.6L96.6542 367.15ZM96.9088 367.212L99.2114 362.774L96.9088 367.212ZM109.119 371.062L111.512 375.451L109.119 371.062ZM104.422 371.11L106.725 366.672L104.422 371.11ZM116.215 367.192L118.609 371.582L116.215 367.192ZM116.3 367.171L118.571 371.625L116.3 367.171ZM27.1943 37.1289L25.2897 32.5059L27.1943 37.1289ZM188.426 330.384L190.698 334.838L188.426 330.384ZM24.9067 330.388L22.6266 334.838L24.9067 330.388ZM184.75 37.1096L182.8 41.7133L184.75 37.1096ZM105.462 5.03421L103.635 9.68835L152.55 28.8934L154.377 24.2393L156.204 19.5852L107.289 0.380084L105.462 5.03421ZM154.377 24.2393L152.582 28.906L152.595 28.9109L154.39 24.2442L156.185 19.5774L156.172 19.5726L154.377 24.2393ZM154.39 24.2442L152.439 28.8479L182.8 41.7133L184.75 37.1096L186.701 32.5059L156.34 19.6405L154.39 24.2442ZM186.701 37.5059V42.5059H198V37.5059V32.5059H186.701V37.5059ZM198 37.5059V42.5059C200.761 42.5059 203 44.7445 203 47.5059H208H213C213 39.2216 206.284 32.5059 198 32.5059V37.5059ZM208 47.5059H203V319.838H208H213V47.5059H208ZM208 319.838L203 319.838C203 322.599 200.761 324.838 198 324.838V329.838V334.838C206.284 334.838 213 328.122 213 319.838L208 319.838ZM198 329.838V324.838H190.698V329.838V334.838H198V329.838ZM188.426 330.384L186.154 325.93L114.028 362.717L116.3 367.171L118.571 371.625L190.698 334.838L188.426 330.384ZM116.215 367.192L113.821 362.802L106.725 366.672L109.119 371.062L111.512 375.451L118.609 371.582L116.215 367.192ZM104.422 371.11L106.725 366.672L99.2114 362.774L96.9088 367.212L94.6061 371.65L102.119 375.548L104.422 371.11ZM96.6542 367.15L98.9343 362.7L27.1867 325.938L24.9067 330.388L22.6266 334.838L94.3742 371.6L96.6542 367.15ZM22.6266 329.838V324.838H15V329.838V334.838H22.6266V329.838ZM15 329.838V324.838C12.2387 324.838 10 322.599 10 319.838L5 319.838L0 319.838C9.91821e-05 328.122 6.71571 334.838 15 334.838V329.838ZM5 319.838H10V47.5059H5H0V319.838H5ZM5 47.5059L10 47.5059C10 44.7445 12.2386 42.5059 15 42.5059V37.5059V32.5059C6.71573 32.5059 2.38419e-06 39.2216 0 47.5059H5ZM15 37.5059V42.5059H25.2897V37.5059V32.5059H15V37.5059ZM27.1943 37.1289L29.0989 41.7519L62.9691 27.7979L61.0645 23.1748L59.1598 18.5518L25.2897 32.5059L27.1943 37.1289ZM61.0645 23.1748L62.969 27.7979L106.992 9.66116L105.088 5.03812L103.183 0.415079L59.1599 18.5518L61.0645 23.1748ZM96.7809 367.181V362.181C97.5297 362.181 98.2678 362.359 98.9343 362.7L96.6542 367.15L94.3742 371.6C95.119 371.982 95.944 372.181 96.7809 372.181V367.181ZM96.9088 367.212L99.2114 362.774C98.4605 362.384 97.6269 362.181 96.7809 362.181V367.181V372.181C96.0239 372.181 95.278 371.999 94.6061 371.65L96.9088 367.212ZM105.088 5.03812L106.999 9.6585C105.932 10.1 104.729 10.116 103.643 9.6915L105.462 5.03421L107.281 0.376928C105.954 -0.141572 104.483 -0.122477 103.177 0.417742L105.088 5.03812ZM109.119 371.062L106.725 366.672V366.672L104.422 371.11L102.119 375.548C105.072 377.08 108.592 377.044 111.512 375.451L109.119 371.062ZM116.258 367.181V362.181C115.407 362.181 114.569 362.394 113.821 362.802L116.215 367.192L118.609 371.582C117.888 371.975 117.08 372.181 116.258 372.181V367.181ZM116.3 367.171L114.028 362.717C114.719 362.364 115.483 362.181 116.258 362.181V367.181V372.181C117.062 372.181 117.855 371.99 118.571 371.625L116.3 367.171ZM25.2897 37.5059V42.5059C26.5965 42.5059 27.8906 42.2498 29.0989 41.7519L27.1943 37.1289L25.2897 32.5059H25.2897V37.5059ZM190.698 329.838V324.838C189.118 324.838 187.561 325.212 186.154 325.93L188.426 330.384L190.698 334.838V334.838V329.838ZM24.9067 330.388L27.1867 325.938C25.7754 325.215 24.2124 324.838 22.6266 324.838V329.838V334.838H22.6266L24.9067 330.388ZM184.75 37.1096L182.8 41.7133C184.034 42.2364 185.361 42.5059 186.701 42.5059V37.5059V32.5059V32.5059L184.75 37.1096Z" fill="#F2AA02" mask="url(#path-1-outside-1_375_360)"/>
<path d="M78.9258 77H88.9258V105H78.9258V77ZM120.926 105H92.9258V75.394L99.0098 66.268L100.7 54.434C100.84 53.4822 101.317 52.6123 102.044 51.9822C102.771 51.3521 103.7 51.0036 104.662 51H104.926C106.517 51.0016 108.042 51.6342 109.167 52.7591C110.292 53.884 110.924 55.4092 110.926 57V69H126.926C129.047 69.0026 131.08 69.8464 132.58 71.3461C134.079 72.8458 134.923 74.8791 134.926 77V91C134.92 94.7114 133.444 98.2693 130.819 100.894C128.195 103.518 124.637 104.995 120.926 105Z" fill="#676767"/>
<path d="M44.9493 156.184C45.7767 162.865 50.606 167.282 50.606 167.282C50.606 167.282 54.0957 160.868 53.2683 154.188C52.4401 147.503 47.6108 143.086 47.6108 143.086C47.6108 143.086 44.1254 149.507 44.9493 156.184ZM45.459 179.635C48.6053 184.701 54.2774 184.742 54.2774 184.742C54.2774 184.742 54.8493 176.568 51.703 171.502C48.5567 166.436 42.8838 166.391 42.8838 166.391C42.8838 166.391 42.3127 174.569 45.459 179.635ZM52.1617 199.364C56.5682 201.689 61.5362 197.817 61.5362 197.817C61.5362 197.817 59.3566 190.173 54.9501 187.848C50.5436 185.523 45.5755 189.395 45.5755 189.395C45.5755 189.395 47.7552 197.039 52.1617 199.364ZM65.4992 211.945C70.129 212.907 74.4248 207.619 74.4248 207.619C74.4248 207.619 71.2113 200.772 66.5806 199.807C61.9507 198.845 57.6585 204.136 57.6585 204.136C57.6585 204.136 60.8693 210.984 65.4992 211.945ZM54.0062 136.58C51.7268 142.441 53.5629 150.262 53.5629 150.262C53.5629 150.262 59.1023 148.585 61.3816 142.724C63.661 136.863 61.824 129.038 61.824 129.038C61.824 129.038 56.2856 130.719 54.0062 136.58Z" fill="#DDA800" fill-opacity="0.8"/>
<path d="M168.902 156.184C168.075 162.865 163.246 167.282 163.246 167.282C163.246 167.282 159.756 160.868 160.583 154.188C161.412 147.503 166.241 143.086 166.241 143.086C166.241 143.086 169.726 149.507 168.902 156.184ZM168.393 179.635C165.246 184.701 159.574 184.742 159.574 184.742C159.574 184.742 159.002 176.568 162.149 171.502C165.295 166.436 170.968 166.391 170.968 166.391C170.968 166.391 171.539 174.569 168.393 179.635ZM161.69 199.364C157.283 201.689 152.315 197.817 152.315 197.817C152.315 197.817 154.495 190.173 158.901 187.848C163.308 185.523 168.276 189.395 168.276 189.395C168.276 189.395 166.096 197.039 161.69 199.364ZM148.352 211.945C143.723 212.907 139.427 207.619 139.427 207.619C139.427 207.619 142.64 200.772 147.271 199.807C151.901 198.845 156.193 204.136 156.193 204.136C156.193 204.136 152.982 210.984 148.352 211.945ZM159.845 136.58C162.125 142.441 160.289 150.262 160.289 150.262C160.289 150.262 154.749 148.585 152.47 142.724C150.191 136.863 152.028 129.038 152.028 129.038C152.028 129.038 157.566 130.719 159.845 136.58Z" fill="#DDA800" fill-opacity="0.8"/>
<path d="M97.7695 146.992V188H91.4824V153.222H91.2559L81.457 159.623V153.676L91.6524 146.992H97.7695ZM114.848 164.125C119.004 164.094 121.973 166.375 121.973 169.781C121.973 173.156 119.004 175.5 114.848 175.469C110.691 175.5 107.723 173.156 107.723 169.781C107.723 166.375 110.691 164.094 114.848 164.125ZM114.848 166.125C112.066 166.094 110.098 167.625 110.129 169.781C110.098 171.969 112.066 173.469 114.848 173.437C117.66 173.469 119.629 171.969 119.629 169.781C119.629 167.625 117.66 166.094 114.848 166.125ZM128.598 162.781V190.562H126.191V162.781H128.598ZM105.629 177.844C110.848 177.844 117.973 177.75 124.16 176.844L124.316 178.687C121.66 179.172 118.895 179.469 116.223 179.625V189.687H113.785V179.781C110.957 179.906 108.285 179.922 105.973 179.937L105.629 177.844Z" fill="#676767"/>
<path d="M92.0918 278.132V279.616H81.6621V278.132H85.959V276.276H87.8145V278.132H92.0918ZM86.877 280.397C89.3965 280.417 91.1152 281.667 91.1152 283.581C91.1152 285.495 89.3965 286.764 86.877 286.764C84.3379 286.764 82.6191 285.495 82.6191 283.581C82.6191 281.667 84.3379 280.417 86.877 280.397ZM86.877 281.823C85.3926 281.823 84.3965 282.507 84.416 283.581C84.3965 284.675 85.3926 285.319 86.877 285.319C88.3613 285.319 89.3574 284.675 89.377 283.581C89.3574 282.507 88.3613 281.823 86.877 281.823ZM95.3926 276.354V281.1H97.9316V282.643H95.3926V287.292H93.5371V276.354H95.3926ZM95.3926 288.19V293.854H93.5371V289.694H83.8301V288.19H95.3926ZM114.924 286.647V288.112H107.775V293.854H105.959V288.112H98.9082V286.647H114.924ZM102.736 277.057V279.343H111.057V277.057H112.912V284.655H100.9V277.057H102.736ZM102.736 283.171H111.057V280.827H102.736V283.171ZM132.229 290.124V291.667H116.213V290.124H123.264V286.081H118.049V277.76H130.314V286.081H125.1V290.124H132.229ZM119.846 279.245V284.616H128.498V279.245H119.846ZM90.5098 301.897V310.061H82.3262V301.897H90.5098ZM84.1426 303.401V308.596H88.6934V303.401H84.1426ZM95.3926 300.335V305.569H97.9316V307.132H95.3926V313.167H93.5371V300.335H95.3926ZM96.1348 315.979V317.483H84.2988V311.936H86.1543V315.979H96.1348ZM113.459 301.038V302.542H108.146C108.332 304.28 110.842 305.735 114.064 306.077L113.381 307.542C110.363 307.19 107.863 305.911 106.916 304.046C105.939 305.911 103.449 307.19 100.432 307.542L99.7676 306.077C102.961 305.735 105.461 304.27 105.666 302.542H100.393V301.038H113.459ZM114.924 309.065V310.569H98.9277V309.065H105.979V306.526H107.814V309.065H114.924ZM112.932 312.132V317.854H111.057V313.616H100.705V312.132H112.932ZM130.393 308.421V309.905H125.1V314.182H132.229V315.706H116.213V314.182H123.264V309.905H118.205V301.702H130.236V303.206H120.061V308.421H130.393Z" fill="#676767"/>
</svg>
